<?xml version="1.0" standalone="no"?>
<!DOCTYPE svg PUBLIC "-//W3C//DTD SVG 20010904//EN"
 "http://www.w3.org/TR/2001/REC-SVG-20010904/DTD/svg10.dtd">
<svg version="1.0" xmlns="http://www.w3.org/2000/svg"
 width="19t" height="19" viewBox="0 0 512.000000 512.000000"
 preserveAspectRatio="xMidYMid meet">

<g transform="translate(0.000000,512.000000) scale(0.100000,-0.100000)"
fill="#626786" stroke="none">
<path d="M735 4628 c-27 -5 -87 -27 -133 -48 -108 -51 -222 -161 -270 -260
-66 -136 -62 -16 -62 -1855 0 -1845 -4 -1723 63 -1822 45 -65 119 -119 196
-143 62 -20 96 -20 1695 -20 1593 0 1635 0 1710 20 110 28 190 74 272 155 51
51 81 92 107 145 27 56 99 303 284 980 235 861 247 909 247 995 1 83 -2 96
-32 157 -62 126 -154 191 -297 211 l-83 11 -5 181 c-3 130 -9 195 -22 235 -64
207 -220 359 -420 410 -75 19 -111 20 -915 20 -654 0 -840 3 -852 13 -8 6 -88
120 -176 253 -88 132 -179 257 -203 278 -23 21 -67 50 -98 65 l-56 26 -450 2
c-259 1 -471 -3 -500 -9z m887 -320 c9 -7 84 -116 167 -241 166 -249 203 -296
267 -333 84 -50 60 -48 984 -54 874 -5 875 -5 916 -27 55 -29 102 -79 127
-133 18 -38 22 -69 25 -207 l4 -162 -1443 -3 c-1376 -3 -1447 -4 -1499 -22
-137 -46 -244 -121 -315 -220 -63 -88 -71 -113 -171 -476 l-89 -324 -3 1002
-2 1003 21 50 c26 59 92 121 152 143 57 20 834 23 859 4z m2886 -1494 c12 -8
22 -25 22 -37 0 -12 -110 -427 -245 -921 -177 -651 -251 -909 -269 -937 -14
-20 -41 -49 -60 -64 -76 -58 9 -55 -1728 -55 -1083 0 -1606 3 -1619 10 -11 6
-19 21 -19 36 0 38 479 1792 501 1835 35 70 99 120 176 138 21 5 737 9 1628
10 1424 1 1593 -1 1613 -15z"/>
</g>
</svg>
