<svg width="22" height="22" viewBox="0 0 22 22" fill="none" xmlns="http://www.w3.org/2000/svg">
<path d="M11 17.5C12.7239 17.5 14.3772 16.8152 15.5962 15.5962C16.8152 14.3772 17.5 12.7239 17.5 11C17.5 9.27609 16.8152 7.62279 15.5962 6.40381C14.3772 5.18482 12.7239 4.5 11 4.5C9.27609 4.5 7.62279 5.18482 6.40381 6.40381C5.18482 7.62279 4.5 9.27609 4.5 11C4.5 12.7239 5.18482 14.3772 6.40381 15.5962C7.62279 16.8152 9.27609 17.5 11 17.5Z" stroke="black" stroke-width="1.5" stroke-linecap="round" stroke-linejoin="round"/>
<path d="M18.14 18.14L18.01 18.01M18.01 3.99L18.14 3.86M3.86 18.14L3.99 18.01M11 1.08V1M11 21V20.92M1.08 11H1M21 11H20.92M3.99 3.99L3.86 3.86" stroke="black" stroke-width="2" stroke-linecap="round" stroke-linejoin="round"/>
</svg>
